<svg width="128" height="128" viewBox="0 0 128 128" xmlns="http://www.w3.org/2000/svg">
  
  <rect width="128" height="128" rx="32" 
        fill="rgba(147, 51, 234, 0.05)" 
        stroke="rgba(147, 51, 234, 0.2)" 
        stroke-width="2.6666666666666665" />
  
  <!-- Message Square Icon -->
  <g transform="translate(32, 32)">
    <svg width="64" height="64" viewBox="0 0 24 24" fill="none">
      <path d="M21 15a2 2 0 0 1-2 2H7l-4 4V5a2 2 0 0 1 2-2h14a2 2 0 0 1 2 2z" 
            fill="none" 
            stroke="#9333ea" 
            stroke-width="2" 
            stroke-linejoin="round" 
            stroke-linecap="round" />
    </svg>
  </g>
  
  <!-- Sparkles Icon -->
  <g transform="translate(80, 80)">
    <svg width="32" height="32" viewBox="0 0 24 24" fill="none">
      <path d="M12 3l-1.912 5.813a2 2 0 0 1-1.275 1.275L3 12l5.813 1.912a2 2 0 0 1 1.275 1.275L12 21l1.912-5.813a2 2 0 0 1 1.275-1.275L21 12l-5.813-1.912a2 2 0 0 1-1.275-1.275L12 3Z" fill="#fbbf24" />
    </svg>
  </g>
</svg>