<svg width="140" height="48" viewBox="0 0 140 48" xmlns="http://www.w3.org/2000/svg">
  
  <defs>
    <linearGradient id="grad-full-light" x1="0%" y1="0%" x2="100%" y2="100%">
      <stop offset="0%" stop-color="#9333ea" />
      <stop offset="100%" stop-color="#6366f1" />
    </linearGradient>
  </defs>
  
  <rect width="48" height="48" rx="12" fill="url(#grad-full-light)" />
  
  <!-- Message Square -->
  <g transform="translate(12, 12)">
    <svg width="24" height="24" viewBox="0 0 24 24" fill="none">
      <path d="M21 15a2 2 0 0 1-2 2H7l-4 4V5a2 2 0 0 1 2-2h14a2 2 0 0 1 2 2z" 
            fill="none" 
            stroke="#ffffff" 
            stroke-width="2" 
            stroke-linejoin="round" 
            stroke-linecap="round" />
    </svg>
  </g>
  
  <!-- Sparkles -->
  <g transform="translate(30, 30)">
    <svg width="12" height="12" viewBox="0 0 24 24" fill="none">
      <path d="M12 3l-1.912 5.813a2 2 0 0 1-1.275 1.275L3 12l5.813 1.912a2 2 0 0 1 1.275 1.275L12 21l1.912-5.813a2 2 0 0 1 1.275-1.275L21 12l-5.813-1.912a2 2 0 0 1-1.275-1.275L12 3Z" fill="#fbbf24" />
    </svg>
  </g>
  
  <!-- Text -->
  <text x="60" y="31" 
        font-family="-apple-system, BlinkMacSystemFont, 'Segoe UI', Roboto, sans-serif" 
        font-size="24" font-weight="700" fill="#111827">Garrio</text>
</svg>