<svg width="1200" height="1200" viewBox="0 0 1200 1200" fill="none" xmlns="http://www.w3.org/2000/svg">
  <defs>
    <linearGradient id="gradient-light-1200" x1="0%" y1="0%" x2="100%" y2="100%">
      <stop offset="0%" style="stop-color:#9333ea;stop-opacity:1" />
      <stop offset="100%" style="stop-color:#6366f1;stop-opacity:1" />
    </linearGradient>
  </defs>
  
  <!-- Background -->
  <rect width="1200" height="1200" rx="300" 
        fill="url(#gradient-light-1200)" 
         />
  
  <!-- Message Square Icon -->
  <g transform="translate(300, 300)">
    <svg width="600" height="600" viewBox="0 0 24 24" fill="none">
      <path d="M21 15a2 2 0 0 1-2 2H7l-4 4V5a2 2 0 0 1 2-2h14a2 2 0 0 1 2 2z" fill="#ffffff" />
    </svg>
  </g>
  
  <!-- Sparkles Icon -->
  <g transform="translate(810, 810)">
    <svg width="300" height="300" viewBox="0 0 24 24" fill="none">
      <path d="m12 3-1.912 5.813a2 2 0 0 1-1.275 1.275L3 12l5.813 1.912a2 2 0 0 1 1.275 1.275L12 21l1.912-5.813a2 2 0 0 1 1.275-1.275L21 12l-5.813-1.912a2 2 0 0 1-1.275-1.275L12 3Z" fill="#fbbf24" />
    </svg>
  </g>
</svg>